# xmcd CD database file
#
# Track frame offsets:
#	150
#	29013
#	53327
#	74152
#	98186
#	123005
#	147983
#	170996
#	194021
#	212859
#	236989
#	258701
#	285250
#	307675
#
# Disc length: 4334 seconds
#
# Revision: 0
# Processed by: cddbd v1.5.1PL0 Copyright (c) Steve Scherf et al.
# Submitted via: CDex 1.51
#
DISCID=da10ec0e
DTITLE=Various Artist - Salsa De Lo 80 y 90
DYEAR=1900
DGENRE=Salsa
TTITLE0=La Rueda - Frankie Ruiz
TTITLE1=No Le Temas A El - Anthony Cruz
TTITLE2=Me Mata La Soledad - Tito Rojas
TTITLE3=Caricias Prohibidas - Viti Cruz
TTITLE4=Jardin Prohibido - Alex Bueno
TTITLE5=Conciencia - Gilberto Santa Rosa
TTITLE6=Porque Te Amo - Nino Segarra
TTITLE7=Cinco Noche - Paquito Guzman
TTITLE8=Sueno Contigo - El Canario
TTITLE9=Casi Te Envidio - Andy Montanez
TTITLE10=Mujer Gitana - Junior Gonzalez
TTITLE11=Amor Imposible - La Solucion
TTITLE12=Salsa Caliente - Orq De La Luz
TTITLE13=Desesperado - Luis Enrrique
EXTD=
EXTT0=
EXTT1=
EXTT2=
EXTT3=
EXTT4=
EXTT5=
EXTT6=
EXTT7=
EXTT8=
EXTT9=
EXTT10=
EXTT11=
EXTT12=
EXTT13=
PLAYORDER=
